# xmcd
#
# Track frame offsets:
#	150
#	14137
#	31717
#	51322
#	69305
#	89682
#	110715
#	129557
#	142995
#	155702
#	170562
#
# Disc length: 2425 seconds
# Revision: 0
# Processed by: cddbd v1.5.2PL0 Copyright (c) Steve Scherf et al.
# Submitted via: dBpowerAMP V12.0
#
DISCID=9d09770b
DTITLE=Suzan and Jeff Sauls - Doggin' Around
DYEAR=1992
DGENRE=Americana
TTITLE0=Baby Get Outta My Heart
TTITLE1=You Hung the Moon (and lit my luck star)
TTITLE2=It's a Smash
TTITLE3=Praying For a Rainstorm
TTITLE4=My Heart Telling Lies
TTITLE5=Doggin' Around
TTITLE6=You Can't Lose Your Mind (just because you lost your man)
TTITLE7=You Can't Blame Me
TTITLE8=The One That Got Away
TTITLE9=Bad Weather Friend
TTITLE10=Li Le Lo
EXTD=
EXTT0=
EXTT1=
EXTT2=
EXTT3=
EXTT4=
EXTT5=
EXTT6=
EXTT7=
EXTT8=
EXTT9=
EXTT10=
PLAYORDER=
